# xmcd CD database file
# Copyright (C) 1993-1998 Ti Kan
#
# Track frame offsets:
#	182
#	17930
#	36450
#	52375
#	72260
#	89385
#	105530
#	120972
#	134202
#	153260
#	170860
#	187912
#	202012
#	217407
#	233560
#	251010
#
# Disc length: 3554 seconds
#
# Revision: 1
# Processed by: cddbd v1.4b41PL1 Copyright (c) Steve Scherf et al.
# Submitted via: CDValet v3.31 - Copyright (c) 1997 Greg Leichner
#
DISCID=f60de010
DTITLE=Various Artist - TV Successen Van Jantje Koopmans
DYEAR=1900
DGENRE=
TTITLE0=Geloof, Hoop En Liefde (J. van Eersel)
TTITLE1=Kleine Piedro (J. van Eersel)
TTITLE2=Ik Wil Een Baan (J. van Eersel)
TTITLE3=Rode Rozen (J. van Eersel)
TTITLE4=Liefde (J. van Eersel)
TTITLE5=Liefde, Zon En Zee (J. van Eersel)
TTITLE6=Het Dorpscafeetje (J. van Eersel)
TTITLE7=Laat Het Zonnetje Schijnen (J. van Eersel)
TTITLE8=Die Mooie Ogen (J. van Eersel)
TTITLE9=De Eerste Kus (J. van Eersel)
TTITLE10=Wat Heet Succes In Het Leven (J. van Eersel)
TTITLE11=Met Humor En Succes Door Het Leven (J. van Eersel)
TTITLE12=O Die Adam (J. van Eersel)
TTITLE13=Die Oude Melodietjes (J. van Eersel)
TTITLE14=Oh Jeanette (J. van Eersel)
TTITLE15=Het Bieboslied (A. van Veldhoven)
EXTD=
EXTT0=
EXTT1=
EXTT2=
EXTT3=
EXTT4=
EXTT5=
EXTT6=
EXTT7=
EXTT8=
EXTT9=
EXTT10=
EXTT11=
EXTT12=
EXTT13=
EXTT14=
EXTT15=
PLAYORDER=
